<svg width="48" height="48" viewBox="0 0 48 48" fill="none" xmlns="http://www.w3.org/2000/svg">
<rect width="48" height="48" rx="8" fill="#CB5DFF" fill-opacity="0.1"/>
<g clip-path="url(#clip0_3013_5580)">
<path d="M18 12C14.691 12 12 14.691 12 18C12 21.309 14.691 24 18 24C21.309 24 24 21.309 24 18C24 14.691 21.309 12 18 12ZM20.776 20.87C20.331 19.775 19.262 19 18.008 19H17.992C16.738 19 15.667 19.773 15.223 20.868C14.472 20.14 14.001 19.126 14.001 18C14.001 15.794 15.795 14 18.001 14C20.207 14 22.001 15.794 22.001 18C22.001 19.127 21.529 20.142 20.777 20.87H20.776ZM19.5 16.5C19.5 17.328 18.828 18 18 18C17.172 18 16.5 17.328 16.5 16.5C16.5 15.672 17.172 15 18 15C18.828 15 19.5 15.672 19.5 16.5ZM30 24C26.691 24 24 26.691 24 30C24 33.309 26.691 36 30 36C33.309 36 36 33.309 36 30C36 26.691 33.309 24 30 24ZM32.776 32.87C32.331 31.775 31.262 31 30.008 31H29.992C28.738 31 27.667 31.773 27.223 32.868C26.472 32.14 26.001 31.126 26.001 30C26.001 27.794 27.795 26 30.001 26C32.207 26 34.001 27.794 34.001 30C34.001 31.127 33.529 32.142 32.777 32.87H32.776ZM31.5 28.5C31.5 29.328 30.828 30 30 30C29.172 30 28.5 29.328 28.5 28.5C28.5 27.672 29.172 27 30 27C30.828 27 31.5 27.672 31.5 28.5ZM26 16C26 15.448 26.447 15 27 15H29C31.206 15 33 16.794 33 19V21C33 21.552 32.553 22 32 22C31.447 22 31 21.552 31 21V19C31 17.897 30.103 17 29 17H27C26.447 17 26 16.552 26 16ZM22 32C22 32.552 21.553 33 21 33H19C16.794 33 15 31.206 15 29V27C15 26.448 15.447 26 16 26C16.553 26 17 26.448 17 27V29C17 30.103 17.897 31 19 31H21C21.553 31 22 31.448 22 32Z" fill="#CB5DFF"/>
</g>
<defs>
<clipPath id="clip0_3013_5580">
<rect width="24" height="24" fill="white" transform="translate(12 12)"/>
</clipPath>
</defs>
</svg>
