<svg width="48" height="48" viewBox="0 0 48 48" fill="none" xmlns="http://www.w3.org/2000/svg">
<rect width="48" height="48" rx="8" fill="#25EB98" fill-opacity="0.1"/>
<g clip-path="url(#clip0_3013_5586)">
<path d="M24.0002 26.5245C26.2229 26.5245 28.0247 24.7226 28.0247 22.4999C28.0247 20.2772 26.2229 18.4753 24.0002 18.4753C21.7774 18.4753 19.9756 20.2772 19.9756 22.4999C19.9756 24.7226 21.7774 26.5245 24.0002 26.5245Z" fill="#25EB98"/>
<path d="M24.0002 31.1925L23.3027 30.495L23.7152 28.02C23.8127 28.0275 23.9027 28.0275 24.0002 28.0275C24.0977 28.0275 24.1952 28.0275 24.2852 28.02L24.6977 30.495L24.0002 31.1925Z" fill="#25EB98"/>
<path d="M34.5 21.4799C34.5024 23.0671 34.1571 24.6356 33.4886 26.0751C32.82 27.5147 31.8443 28.7903 30.63 29.8124L29.9925 30.3224C29.9986 30.3923 30.0011 30.4623 30 30.5324V35.2499C29.9994 35.4487 29.9202 35.6391 29.7797 35.7796C29.6392 35.9202 29.4487 35.9994 29.25 35.9999H18.75C18.5513 35.9994 18.3608 35.9202 18.2203 35.7796C18.0798 35.6391 18.0006 35.4487 18 35.2499V30.5324C17.9989 30.4623 18.0014 30.3923 18.0075 30.3224L17.4 29.8424C16.1798 28.817 15.1985 27.5372 14.5248 26.0926C13.8512 24.6481 13.5014 23.0738 13.5 21.4799C13.5009 20.9531 13.7106 20.4481 14.0831 20.0756C14.4557 19.703 14.9607 19.4933 15.4875 19.4924H16.0125C16.5393 19.4933 17.0443 19.703 17.4169 20.0756C17.7894 20.4481 17.9991 20.9531 18 21.4799C18.0005 22.4121 18.2026 23.3332 18.5925 24.1799C18.7468 24.5128 18.93 24.8315 19.14 25.1324L19.1475 25.1399C19.8122 26.3647 20.9163 27.2919 22.2375 27.7349L21.7575 30.6299C21.7388 30.7475 21.7481 30.8679 21.7846 30.9813C21.8211 31.0946 21.8837 31.1978 21.9675 31.2824L23.4675 32.7824C23.6097 32.9218 23.8009 32.9999 24 32.9999C24.1991 32.9999 24.3903 32.9218 24.5325 32.7824L26.0325 31.2824C26.1163 31.1978 26.1789 31.0946 26.2154 30.9813C26.2519 30.8679 26.2612 30.7475 26.2425 30.6299L25.7625 27.7349C27.0744 27.2911 28.1736 26.3738 28.845 25.1624C28.8496 25.1589 28.8533 25.1543 28.8559 25.1491C28.8585 25.1439 28.8599 25.1382 28.86 25.1324C29.6054 24.0606 30.0034 22.7855 30 21.4799C30.0009 20.9531 30.2106 20.4481 30.5831 20.0756C30.9557 19.703 31.4607 19.4933 31.9875 19.4924H32.5125C33.0393 19.4933 33.5443 19.703 33.9169 20.0756C34.2894 20.4481 34.4991 20.9531 34.5 21.4799Z" fill="#25EB98"/>
<path d="M25.5381 15.0385C25.4395 15.0386 25.342 15.0192 25.251 14.9815C25.16 14.9438 25.0773 14.8885 25.0077 14.8187L23.971 13.782L22.9731 14.7803C22.9039 14.8519 22.8211 14.909 22.7296 14.9483C22.6381 14.9876 22.5397 15.0083 22.4401 15.0092C22.3405 15.0101 22.2418 14.9911 22.1496 14.9534C22.0574 14.9157 21.9737 14.86 21.9033 14.7895C21.8328 14.7191 21.7772 14.6354 21.7394 14.5432C21.7017 14.451 21.6828 14.3523 21.6836 14.2527C21.6845 14.1531 21.7052 14.0547 21.7445 13.9632C21.7838 13.8717 21.8409 13.7889 21.9126 13.7197L23.4408 12.1912C23.5841 12.0557 23.7738 11.9802 23.971 11.9802C24.1682 11.9802 24.3579 12.0557 24.5013 12.1912L26.0683 13.7581C26.1732 13.863 26.2446 13.9967 26.2736 14.1421C26.3025 14.2876 26.2877 14.4384 26.2309 14.5755C26.1741 14.7125 26.078 14.8296 25.9547 14.912C25.8314 14.9945 25.6864 15.0385 25.5381 15.0385Z" fill="#25EB98"/>
<path d="M23.9912 17.25C23.7923 17.25 23.6015 17.171 23.4609 17.0303C23.3202 16.8897 23.2412 16.6989 23.2412 16.5V13.5C23.2412 13.3011 23.3202 13.1103 23.4609 12.9697C23.6015 12.829 23.7923 12.75 23.9912 12.75C24.1901 12.75 24.3809 12.829 24.5215 12.9697C24.6622 13.1103 24.7412 13.3011 24.7412 13.5V16.5C24.7412 16.6989 24.6622 16.8897 24.5215 17.0303C24.3809 17.171 24.1901 17.25 23.9912 17.25Z" fill="#25EB98"/>
<path d="M20.2977 16.5385C20.1992 16.5386 20.1016 16.5192 20.0106 16.4815C19.9196 16.4438 19.8369 16.3885 19.7674 16.3187L18.7307 15.282L17.7332 16.2802C17.5918 16.4174 17.4022 16.4934 17.2053 16.4919C17.0083 16.4904 16.8199 16.4115 16.6806 16.2723C16.5414 16.133 16.4625 15.9446 16.461 15.7476C16.4595 15.5507 16.5355 15.3611 16.6726 15.2197L18.2004 13.6912C18.3437 13.5557 18.5335 13.4802 18.7307 13.4802C18.9279 13.4802 19.1177 13.5557 19.261 13.6912L20.828 15.2581C20.9328 15.363 21.0043 15.4966 21.0332 15.6421C21.0622 15.7876 21.0473 15.9384 20.9905 16.0754C20.9338 16.2125 20.8377 16.3296 20.7144 16.412C20.591 16.4944 20.446 16.5384 20.2977 16.5385Z" fill="#25EB98"/>
<path d="M18.75 18.75C18.5511 18.75 18.3603 18.671 18.2197 18.5303C18.079 18.3897 18 18.1989 18 18V15C18 14.8011 18.079 14.6103 18.2197 14.4697C18.3603 14.329 18.5511 14.25 18.75 14.25C18.9489 14.25 19.1397 14.329 19.2803 14.4697C19.421 14.6103 19.5 14.8011 19.5 15V18C19.5 18.1989 19.421 18.3897 19.2803 18.5303C19.1397 18.671 18.9489 18.75 18.75 18.75Z" fill="#25EB98"/>
<path d="M27.7021 16.5385C27.5537 16.5385 27.4087 16.4945 27.2854 16.4121C27.1621 16.3296 27.066 16.2125 27.0092 16.0755C26.9525 15.9384 26.9376 15.7876 26.9666 15.6422C26.9955 15.4967 27.0669 15.363 27.1718 15.2582L28.7388 13.6912C28.8084 13.6215 28.8911 13.5663 28.9821 13.5286C29.0731 13.4909 29.1706 13.4714 29.2691 13.4714C29.468 13.4715 29.6587 13.5505 29.7994 13.6912L31.3276 15.2198C31.4647 15.3611 31.5407 15.5507 31.5392 15.7477C31.5377 15.9446 31.4588 16.133 31.3195 16.2723C31.1803 16.4115 30.9918 16.4904 30.7949 16.4919C30.598 16.4934 30.4083 16.4174 30.267 16.2803L29.2691 15.282L28.2324 16.3187C28.1628 16.3885 28.0802 16.4438 27.9892 16.4815C27.8981 16.5192 27.8006 16.5386 27.7021 16.5385Z" fill="#25EB98"/>
<path d="M29.25 18.75C29.0511 18.75 28.8603 18.671 28.7197 18.5303C28.579 18.3897 28.5 18.1989 28.5 18V15C28.5 14.8011 28.579 14.6103 28.7197 14.4697C28.8603 14.329 29.0511 14.25 29.25 14.25C29.4489 14.25 29.6397 14.329 29.7803 14.4697C29.921 14.6103 30 14.8011 30 15V18C30 18.1989 29.921 18.3897 29.7803 18.5303C29.6397 18.671 29.4489 18.75 29.25 18.75Z" fill="#25EB98"/>
</g>
<defs>
<clipPath id="clip0_3013_5586">
<rect width="24" height="24" fill="white" transform="translate(12 12)"/>
</clipPath>
</defs>
</svg>
