<svg width="56" height="56" viewBox="0 0 56 56" fill="none" xmlns="http://www.w3.org/2000/svg">
<rect width="56" height="56" rx="9.33333" fill="#5DC4FF" fill-opacity="0.1"/>
<g clip-path="url(#clip0_3013_5656)">
<path d="M17.0625 29.75C17.3041 29.75 17.5 29.5541 17.5 29.3125C17.5 29.0709 17.3041 28.875 17.0625 28.875C16.8209 28.875 16.625 29.0709 16.625 29.3125C16.625 29.5541 16.8209 29.75 17.0625 29.75Z" fill="#5DC4FF"/>
<path d="M14 15.75C14 14.7827 14.7827 14 15.75 14H18.375C19.3423 14 20.125 14.7827 20.125 15.75V30.625C20.125 31.5923 19.3423 32.375 18.375 32.375H15.75C14.7827 32.375 14 31.5923 14 30.625V15.75ZM17.0625 30.625C17.7874 30.625 18.375 30.0374 18.375 29.3125C18.375 28.5876 17.7874 28 17.0625 28C16.3376 28 15.75 28.5876 15.75 29.3125C15.75 30.0374 16.3376 30.625 17.0625 30.625Z" fill="#5DC4FF"/>
<path d="M42 29.75C42 31.1994 40.8244 32.375 39.375 32.375H31.9375L32.8125 40.25C32.9039 41.2068 32.2494 42 31.2821 42H29.5317C28.4375 42 27.9821 41.2344 27.5625 40.25L24.0625 32.375C23.1197 30.1131 21.875 29.75 21 29.75V16.5292C21.5263 16.4045 22.1874 16.1158 22.8419 15.4446C24.2042 14.0459 25.8313 14 26.6875 14H36.75C38.1994 14 39.375 15.1756 39.375 16.625C39.375 17.3819 39.0526 18.0631 38.5394 18.5421C39.5373 18.9131 40.25 19.8721 40.25 21C40.25 21.7569 39.9276 22.4381 39.4144 22.9171C40.4123 23.2881 41.125 24.2471 41.125 25.375C41.125 26.1319 40.8026 26.8131 40.2894 27.2921C41.2873 27.6631 42 28.6221 42 29.75Z" fill="#5DC4FF"/>
</g>
<defs>
<clipPath id="clip0_3013_5656">
<rect width="28" height="28" fill="white" transform="translate(14 14)"/>
</clipPath>
</defs>
</svg>
