<svg width="56" height="56" viewBox="0 0 56 56" fill="none" xmlns="http://www.w3.org/2000/svg">
<rect width="56" height="56" rx="9.33333" fill="#5DC4FF" fill-opacity="0.1"/>
<path fill-rule="evenodd" clip-rule="evenodd" d="M15.8501 14.8506C16.395 14.3057 17.2785 14.3057 17.8234 14.8506L18.462 15.4892C19.0069 16.0341 19.0069 16.9176 18.462 17.4625C17.9171 18.0074 17.0336 18.0074 16.4887 17.4625L15.8501 16.8239C15.3052 16.279 15.3052 15.3955 15.8501 14.8506ZM40.1489 14.8506C40.6939 15.3955 40.6939 16.279 40.1489 16.8239L39.5104 17.4625C38.9655 18.0074 38.082 18.0074 37.537 17.4625C36.9921 16.9176 36.9921 16.0341 37.537 15.4892L38.1757 14.8506C38.7207 14.3057 39.604 14.3057 40.1489 14.8506ZM18.4616 35.5379C19.0066 36.0828 19.0066 36.9664 18.4616 37.5113L17.8234 38.1494C17.2785 38.6944 16.395 38.6944 15.8501 38.1494C15.3052 37.6045 15.3052 36.7211 15.8501 36.1762L16.4883 35.5379C17.0332 34.993 17.9167 34.993 18.4616 35.5379ZM37.5374 35.5379C38.0823 34.993 38.9659 34.993 39.5108 35.5379L40.1489 36.1762C40.6939 36.7211 40.6939 37.6045 40.1489 38.1494C39.604 38.6944 38.7207 38.6944 38.1757 38.1494L37.5374 37.5113C36.9925 36.9664 36.9925 36.0828 37.5374 35.5379Z" fill="#5DC4FF"/>
<path d="M17 25.1388C17 31.0709 21.4214 34.2321 24.658 37.0615C25.8 38.0599 26.9 39 28 39C29.1 39 30.2 38.0599 31.342 37.0615C34.5787 34.2321 39 31.0709 39 25.1388C39 19.2068 32.9498 14.9998 28 20.7029C23.0502 14.9998 17 19.2068 17 25.1388Z" fill="#5DC4FF"/>
</svg>
