<svg width="56" height="56" viewBox="0 0 56 56" fill="none" xmlns="http://www.w3.org/2000/svg">
<rect width="56" height="56" rx="9.33333" fill="#5DC4FF" fill-opacity="0.1"/>
<g clip-path="url(#clip0_3013_5634)">
<path d="M28 41.9999C27.3525 41.9999 26.7062 41.9101 26.0773 41.7304L18.2303 39.4892C15.7395 38.7776 14 36.4711 14 33.8799V18.6666C14 18.0226 14.5227 17.4999 15.1667 17.4999C15.8107 17.4999 16.3333 18.0226 16.3333 18.6666V33.8799C16.3333 35.4351 17.3775 36.8187 18.872 37.2457L26.719 39.4869C27.5578 39.7261 28.4433 39.7261 29.2833 39.4869L37.1292 37.2457C38.6237 36.8187 39.6678 35.4351 39.6678 33.8799V17.4999C39.6678 16.8559 40.1905 16.3332 40.8345 16.3332C41.4785 16.3332 42.0012 16.8559 42.0012 17.4999V33.8799C42.0012 36.4699 40.2617 38.7764 37.7708 39.4892L29.9238 41.7304C29.2938 41.9101 28.6475 41.9999 28.0012 41.9999H28ZM35.0268 14.1807C34.1775 13.8669 33.2313 13.9451 32.3902 14.2811L31.367 14.6894C30.0382 15.2202 29.1655 16.5082 29.1655 17.9397V34.8517C28.7828 34.9497 28.392 34.9999 27.9988 34.9999C27.6057 34.9999 27.2148 34.9497 26.8322 34.8517V17.9397C26.8322 16.5082 25.9607 15.2202 24.6307 14.6894L23.6063 14.2799C22.7652 13.9439 21.819 13.8657 20.9697 14.1807C19.5522 14.7057 18.6643 16.0276 18.6643 17.4731V32.3061C18.6643 33.8682 19.7003 35.2414 21.2018 35.6707L26.0738 37.0637C26.7015 37.2422 27.349 37.3321 27.9965 37.3321C28.644 37.3321 29.2915 37.2422 29.9192 37.0637L34.7912 35.6707C36.2938 35.2414 37.3287 33.8682 37.3287 32.3061V17.4731C37.3287 16.0276 36.4397 14.7046 35.0222 14.1807H35.0268Z" fill="#5DC4FF"/>
</g>
<defs>
<clipPath id="clip0_3013_5634">
<rect width="28" height="28" fill="white" transform="translate(14 14)"/>
</clipPath>
</defs>
</svg>
