<svg width="56" height="56" viewBox="0 0 56 56" fill="none" xmlns="http://www.w3.org/2000/svg">
<rect width="56" height="56" rx="9.33333" fill="#5DC4FF" fill-opacity="0.1"/>
<g clip-path="url(#clip0_3013_5649)">
<path d="M34.4165 16.2363C33.1027 16.2568 31.8177 16.6235 30.691 17.2995C29.5644 17.9755 28.636 18.9368 27.9998 20.0863C27.3635 18.9368 26.4352 17.9755 25.3086 17.2995C24.1819 16.6235 22.8968 16.2568 21.5831 16.2363C19.4889 16.3273 17.5158 17.2435 16.0949 18.7846C14.674 20.3257 13.9207 22.3666 13.9998 24.4613C13.9998 29.7662 19.5835 35.5598 24.2665 39.488C25.312 40.3666 26.634 40.8484 27.9998 40.8484C29.3655 40.8484 30.6875 40.3666 31.7331 39.488C36.4161 35.5598 41.9998 29.7662 41.9998 24.4613C42.0788 22.3666 41.3256 20.3257 39.9047 18.7846C38.4838 17.2435 36.5107 16.3273 34.4165 16.2363Z" fill="#5DC4FF"/>
<path d="M36 40.9999C37.5913 40.9999 39.1174 40.3677 40.2426 39.2425C41.3679 38.1173 42 36.5912 42 34.9999C42 33.4086 41.3679 31.8825 40.2426 30.7572C39.1174 29.632 37.5913 28.9999 36 28.9999C34.4087 28.9999 32.8826 29.632 31.7574 30.7572C30.6321 31.8825 30 33.4086 30 34.9999C30 36.5912 30.6321 38.1173 31.7574 39.2425C32.8826 40.3677 34.4087 40.9999 36 40.9999ZM36.6667 32.3332V34.3332H38.6667C39.0333 34.3332 39.3333 34.6332 39.3333 34.9999C39.3333 35.3665 39.0333 35.6665 38.6667 35.6665H36.6667V37.6665C36.6667 38.0332 36.3667 38.3332 36 38.3332C35.6333 38.3332 35.3333 38.0332 35.3333 37.6665V35.6665H33.3333C32.9667 35.6665 32.6667 35.3665 32.6667 34.9999C32.6667 34.6332 32.9667 34.3332 33.3333 34.3332H35.3333V32.3332C35.3333 31.9665 35.6333 31.6665 36 31.6665C36.3667 31.6665 36.6667 31.9665 36.6667 32.3332Z" fill="#5DC4FF"/>
<path fill-rule="evenodd" clip-rule="evenodd" d="M41.3033 40.3032C39.8968 41.7097 37.9891 42.4999 36 42.4999C34.0109 42.4999 32.1032 41.7097 30.6967 40.3032C29.2902 38.8967 28.5 36.989 28.5 34.9999C28.5 33.0108 29.2902 31.1031 30.6967 29.6966C32.1032 28.2901 34.0109 27.4999 36 27.4999C37.9891 27.4999 39.8968 28.2901 41.3033 29.6966C42.7098 31.1031 43.5 33.0108 43.5 34.9999C43.5 36.989 42.7098 38.8967 41.3033 40.3032ZM38.6667 35.6665C39.0333 35.6665 39.3333 35.3665 39.3333 34.9999C39.3333 34.6332 39.0333 34.3332 38.6667 34.3332H36.6667V32.3332C36.6667 31.9665 36.3667 31.6665 36 31.6665C35.6333 31.6665 35.3333 31.9665 35.3333 32.3332V34.3332H33.3333C32.9667 34.3332 32.6667 34.6332 32.6667 34.9999C32.6667 35.3665 32.9667 35.6665 33.3333 35.6665H35.3333V37.6665C35.3333 38.0332 35.6333 38.3332 36 38.3332C36.3667 38.3332 36.6667 38.0332 36.6667 37.6665V35.6665H38.6667ZM40.2426 39.2425C39.1174 40.3677 37.5913 40.9999 36 40.9999C34.4087 40.9999 32.8826 40.3677 31.7574 39.2425C30.6321 38.1173 30 36.5912 30 34.9999C30 33.4086 30.6321 31.8825 31.7574 30.7572C32.8826 29.632 34.4087 28.9999 36 28.9999C37.5913 28.9999 39.1174 29.632 40.2426 30.7572C41.3679 31.8825 42 33.4086 42 34.9999C42 36.5912 41.3679 38.1173 40.2426 39.2425Z" fill="#EFFAFF"/>
</g>
<defs>
<clipPath id="clip0_3013_5649">
<rect width="28" height="28" fill="white" transform="translate(14 14)"/>
</clipPath>
</defs>
</svg>
